LG_Walk_Slower01																		
version=1																		
nRows=62																		
nColumns=19																		
inDegrees=yes																		
endheader																		
time	ground_force2_vx	ground_force2_vy	ground_force2_vz	ground_force2_px	ground_force2_py	ground_force2_pz	ground_torque2_x	ground_torque2_y	ground_torque2_z	ground_force1_vx	ground_force1_vy	ground_force1_vz	ground_force1_px	ground_force1_py	ground_force1_pz	ground_torque1_x	ground_torque1_y	ground_torque1_z
7.315	-33.236717	758.018188	57.276638	0.165542	0	-0.278701	8.00E-06	1.970835	5.00E-06	0	0	0	-0.13	0	0.305	0	0	0
7.316	-33.236717	758.018188	57.511509	0.165935	0	-0.278461	9.00E-06	1.966374	6.00E-06	0	0	0	-0.13	0	0.305	0	0	0
7.317	-33.236717	758.018188	57.511509	0.165935	0	-0.278123	-1.00E-06	1.966374	6.00E-06	0	0	0	-0.13	0	0.305	0	0	0
7.318	-33.703102	757.178833	57.511509	0.165935	0	-0.277957	1.30E-05	1.88521	6.00E-06	0	0	0	-0.13	0	0.305	0	0	0
7.319	-34.17598	755.969971	57.511509	0.166131	0	-0.278123	3.00E-06	1.88521	1.40E-05	0	0	0	-0.13	0	0.305	0	0	0
7.32	-34.17598	755.969971	57.589882	0.165814	0	-0.277957	1.50E-05	2.034576	8.00E-06	0	0	0	-0.13	0	0.305	0	0	0
7.321	-34.567398	755.473511	58.529926	0.165826	0	-0.277818	3.00E-06	2.034576	8.00E-06	0	0	0	-0.13	0	0.305	0	0	0
7.322	-35.892307	755.473511	60.17543	0.165826	0	-0.277818	1.60E-05	2.029052	8.00E-06	0	0	0	-0.13	0	0.305	0	0	0
7.323	-37.848686	755.298035	61.350471	0.165826	0	-0.277281	2.50E-05	1.991948	1.10E-05	0	0	0	-0.13	0	0.305	0	0	0
7.324	-37.930145	753.59082	62.839355	0.16591	0	-0.276842	2.50E-05	2.029052	1.10E-05	0	0	0	-0.13	0	0.305	0	0	0
7.325	-37.930145	752.719116	64.093124	0.16567	0	-0.276805	4.00E-06	1.991948	6.00E-06	0	0	0	-0.13	0	0.303215	0	0	0
7.326	-37.535118	751.878601	64.171257	0.16569	0	-0.276805	4.00E-06	1.951378	5.00E-06	0	0	0	-0.126259	0	0.2609	0	0	0
7.327	-37.535118	751.878601	64.48494	0.16569	0	-0.276237	4.00E-06	1.885236	5.00E-06	0	0	0	-0.126259	0	0.2609	0	0	0
7.328	-38.387871	751.878601	64.71965	0.165846	0	-0.276237	4.00E-06	1.767633	3.00E-06	0	0	0	-0.126259	0	0.2609	0	0	0
7.329	-38.543571	750.000122	65.816437	0.166061	0	-0.276269	1.00E-05	1.767633	3.00E-06	1.809423	20.420082	25.318569	-0.104913	0	0.144051	0	-0.622499	0
7.33	-38.543571	748.137085	66.442963	0.165846	0	-0.276269	-1.00E-06	1.870578	5.00E-06	3.443573	25.327229	27.983015	-0.093387	0	0.026339	0	-1.793951	0
7.331	-39.950661	749.017334	68.009651	0.166061	0	-0.275024	1.20E-05	1.979992	1.00E-05	3.984922	23.783739	28.610104	-0.05509	0	0.018705	0.00E+00	-3.457623	0
7.332	-39.950661	749.017334	68.322693	0.166072	0	-0.275024	5.00E-06	1.979992	1.00E-05	3.984922	23.783739	28.924271	-0.014254	0	-0.06767	0	-4.621696	0
7.333	-39.782692	751.431946	68.322693	0.166215	0	-0.275024	5.00E-06	1.925424	6.00E-06	1.955023	21.591274	28.924271	0.001605	0	-0.1371	0	-4.621696	0
7.334	-39.782692	751.443115	68.322495	0.166422	0	-0.274738	5.00E-06	1.925424	0.00E+00	0.924921	21.591274	28.767447	0.015586	0	-0.140957	0	-4.285516	0
7.335	-40.26062	751.811096	68.322495	0.166619	0	-0.274461	1.20E-05	1.925424	5.00E-06	0.924921	23.312826	28.767447	0.001605	0	-0.1371	0	-4.081713	0
7.336	-40.338474	751.811096	68.636299	0.166718	0	-0.274339	1.40E-05	1.832856	5.00E-06	0.934303	31.520603	28.767447	-0.026384	0	-0.014632	0.00E+00	-3.118303	0
7.337	-40.732056	751.811096	68.636299	0.166859	0	-0.274294	1.50E-05	1.817679	5.00E-06	1.019369	32.780048	28.374868	-0.044926	0	0.02007	0	-2.864605	0
7.338	-40.424263	750.950195	68.244926	0.16673	0	-0.274294	1.50E-05	1.747979	7.00E-06	1.814476	35.48283	27.434177	-0.047745	0	0.022298	0	-2.597203	0
7.339	-40.424263	749.553467	68.088707	0.166991	0	-0.274415	-2.00E-06	1.707492	8.00E-06	1.814476	37.335823	25.318249	-0.06217	0	0.058345	0	-1.792435	0
7.34	-40.355072	749.375977	67.932487	0.16673	0	-0.274415	-2.00E-06	1.747979	9.00E-06	2.205174	44.81918	22.653765	-0.095039	0	0.132788	0	-1.106917	0
7.341	-40.355072	749.034302	67.932487	0.16681	0	-0.274375	1.50E-05	1.707492	8.00E-06	3.540907	46.075111	21.869854	-0.096942	0	0.147736	0	-1.07792	0
7.342	-40.432922	748.686401	68.089714	0.16681	0	-0.274351	1.50E-05	1.700471	1.10E-05	3.703105	49.626881	18.578686	-0.105847	0	0.154092	0	-0.943184	0
7.343	-40.43364	747.654541	68.246292	0.16681	0	-0.274351	1.50E-05	1.700471	7.00E-06	3.703105	50.463524	16.149351	-0.111572	0	0.15733	0.00E+00	-0.815812	0
7.344	-40.43364	746.953369	68.48185	0.167081	0	-0.27415	1.70E-05	1.724938	4.00E-06	3.703105	53.398499	14.425636	-0.11271	0	0.165044	-1.00E-06	-0.804462	0
7.345	-40.12801	745.234558	68.559937	0.166794	0	-0.274109	1.70E-05	1.811305	3.00E-06	3.70527	53.909939	12.31007	-0.115858	0	0.171261	0.00E+00	-0.804462	0
7.346	-39.891571	742.319214	68.48185	0.16691	0	-0.27361	5.00E-06	1.724938	3.00E-06	5.343747	53.909939	11.213079	-0.115858	0	0.171261	0	-1.020158	0
7.347	-39.887962	742.319214	68.403076	0.16691	0	-0.27361	5.00E-06	1.745152	3.00E-06	5.50017	53.074127	8.940969	-0.107019	0	0.146028	0	-1.136468	0
7.348	-39.887962	741.978638	68.324951	0.167043	0	-0.273449	9.00E-06	1.658806	7.00E-06	5.733723	52.782532	6.747515	-0.103511	0	0.124317	0	-1.228771	0.00E+00
7.349	-39.887962	741.656616	68.403076	0.167044	0	-0.272952	1.30E-05	1.660761	7.00E-06	5.733723	50.868568	5.885678	-0.097537	0	0.124242	0	-1.228771	0
7.35	-39.336514	740.274902	68.167679	0.167112	0	-0.272852	1.30E-05	1.660761	8.00E-06	5.733723	45.944427	4.475729	-0.083819	0	0.077316	0	-1.510759	0
7.351	-39.336514	739.083008	68.480759	0.167112	0	-0.272852	1.30E-05	1.704032	5.00E-06	6.041519	45.944427	3.692303	-0.082684	0	0.075605	0	-1.648461	0
7.352	-39.415085	737.886841	68.167679	0.167112	0	-0.272671	1.30E-05	1.771888	8.00E-06	6.430054	46.150505	2.752057	-0.076635	0	0.070516	0	-1.832322	0
7.353	-39.415085	736.85083	68.167442	0.167442	0	-0.272237	1.80E-05	1.771888	8.00E-06	6.430054	48.192863	2.125369	-0.076635	0	0.058297	0.00E+00	-1.832322	0
7.354	-38.942207	736.518738	67.697418	0.1676	0	-0.272	1.80E-05	1.771888	8.00E-06	6.354368	50.627216	0.949929	-0.077155	0	0.058297	0	-1.604637	0
7.355	-38.790112	734.623291	67.305725	0.167593	0	-0.271904	1.40E-05	1.785761	8.00E-06	6.120092	56.288067	0.479865	-0.07976	0	0.09668	0	-1.389076	0
7.356	-38.242992	734.302002	67.462303	0.1676	0	-0.271325	1.30E-05	1.785761	8.00E-06	6.354368	59.215359	0.244593	-0.08548	0	0.099165	0	-1.389076	0
7.357	-38.240826	734.302002	67.22715	0.167865	0	-0.271325	1.30E-05	1.672578	2.00E-06	6.357253	61.483475	-0.539478	-0.086437	0	0.099165	0	-1.419035	0
7.358	-38.160088	734.302002	67.148865	0.167866	0	-0.271325	9.00E-06	1.672578	1.00E-05	7.616578	62.477089	-0.852598	-0.094273	0	0.099595	0	-1.464283	0
7.359	-38.160088	733.437622	66.75721	0.168344	0	-0.271196	9.00E-06	1.637604	9.00E-06	7.616578	68.483612	-1.088233	-0.097171	0	0.117828	-1.00E-06	-1.464283	0
7.36	-38.088734	732.593628	66.75721	0.16822	0	-0.271196	2.00E-06	1.637604	9.00E-06	7.69515	77.400749	-1.401677	-0.097504	0	0.149348	-1.00E-06	-1.076404	0
7.361	-38.005829	732.414307	66.992325	0.16822	0	-0.27113	2.20E-05	1.637604	8.00E-06	8.324453	78.787491	-2.028442	-0.098518	0	0.149348	-1.00E-06	-1.076404	-1.00E-06
7.362	-37.695869	732.081421	66.992325	0.16822	0	-0.27113	1.70E-05	1.660047	5.00E-06	8.48665	80.316788	-2.263955	-0.098518	0	0.138556	0	-1.21507	-1.00E-06
7.363	-37.695869	732.068298	66.992325	0.16822	0	-0.270857	1.70E-05	1.660047	5.00E-06	8.560171	80.342751	-2.655648	-0.098518	0	0.138556	0	-1.21507	-1.00E-06
7.364	-37.695869	728.465576	67.07061	0.168564	0	-0.270772	1.10E-05	1.652628	5.00E-06	8.958806	85.859756	-3.752717	-0.097881	0	0.142053	-1.00E-06	-1.21507	0.00E+00
7.365	-36.992325	727.958374	67.227478	0.16877	0	-0.270857	-5.00E-06	1.652628	5.00E-06	9.896626	87.932678	-4.144292	-0.094333	0	0.142053	-1.00E-06	-1.259578	0
7.366	-36.992325	727.958374	67.227478	0.16877	0	-0.270742	1.10E-05	1.635449	8.00E-06	10.052327	88.815247	-4.144292	-0.094333	0	0.136079	-1.00E-06	-1.268257	0
7.367	-36.990883	724.869873	67.305321	0.16877	0	-0.270295	8.00E-06	1.577863	8.00E-06	10.60017	89.877182	-4.144292	-0.094333	0	0.135542	0.00E+00	-1.268257	0.00E+00
7.368	-36.751556	724.356934	67.227066	0.168756	0	-0.270092	1.40E-05	1.539594	8.00E-06	10.915905	91.629585	-4.222219	-0.093715	0	0.127519	0	-1.318166	0
7.369	-36.751556	724.007446	67.227066	0.168756	0	-0.269903	8.00E-06	1.577863	4.00E-06	11.465191	91.629585	-4.222219	-0.092188	0	0.127519	0.00E+00	-1.339879	0
7.37	-36.751556	722.297546	67.07045	0.168705	0	-0.269903	2.00E-06	1.687153	4.00E-06	12.638727	94.023361	-3.282092	-0.091919	0	0.119703	-1.00E-06	-1.459571	0
7.371	-36.365189	721.082153	66.600266	0.168705	0	-0.269879	2.00E-06	1.687153	2.00E-06	12.717299	94.385605	-3.282092	-0.091919	0	0.119703	0.00E+00	-1.543805	0
7.372	-35.970161	718.515137	66.521935	0.168991	0	-0.269879	4.00E-06	1.580019	2.00E-06	12.798759	96.113693	-3.282092	-0.091919	0	0.119703	-1.00E-06	-1.543805	0
7.373	-35.895195	717.476379	66.365273	0.169198	0	-0.269655	2.10E-05	1.580019	1.00E-06	13.115936	101.273903	-2.028682	-0.094125	0	0.127653	0.00E+00	-1.52077	-1.00E-06
7.374	-35.895195	716.282959	66.208817	0.16925	0	-0.269063	8.00E-06	1.520999	2.00E-06	13.505912	103.161652	-1.636828	-0.095583	0	0.129612	0	-1.353238	-1.00E-06
7.375	-35.818787	715.774597	66.365273	0.16925	0	-0.269023	8.00E-06	1.59611	3.00E-06	13.743073	108.670578	-1.636828	-0.095924	0	0.137366	0	-1.353238	-1.00E-06
7.376	-35.740936	715.094116	66.208817	0.169231	0	-0.269017	8.00E-06	1.59611	6.00E-06	14.605206	110.033371	-1.480409	-0.097439	0	0.13759	0.00E+00	-1.362531	-1.00E-06
